<?xml version="1.0" encoding="utf-8"?>
<!-- Generator: Adobe Illustrator 23.1.1, SVG Export Plug-In . SVG Version: 6.00 Build 0)  -->
<svg version="1.1" id="Capa_1" xmlns="http://www.w3.org/2000/svg" xmlns:xlink="http://www.w3.org/1999/xlink" x="0px" y="0px"
	 viewBox="0 0 500 116" style="enable-background:new 0 0 500 116;" xml:space="preserve">
<style type="text/css">
	.st0{clip-path:url(#SVGID_2_);}
	.st1{clip-path:url(#SVGID_4_);fill:#024223;}
	.st2{clip-path:url(#SVGID_4_);fill:#4E802F;}
	.st3{clip-path:url(#SVGID_6_);}
	.st4{clip-path:url(#SVGID_8_);fill:#FFFFFF;}
</style>
<g>
	<g>
		<defs>
			<rect id="SVGID_1_" width="500" height="116"/>
		</defs>
		<clipPath id="SVGID_2_">
			<use xlink:href="#SVGID_1_"  style="overflow:visible;"/>
		</clipPath>
		<g class="st0">
			<defs>
				<rect id="SVGID_3_" width="500" height="116"/>
			</defs>
			<clipPath id="SVGID_4_">
				<use xlink:href="#SVGID_3_"  style="overflow:visible;"/>
			</clipPath>
			<path class="st1" d="M33.23,28.48h15.06v59.9H33.23V28.48z M46.67,88.37V74.29h9.71c2.54,0,4.82-0.36,6.84-1.09
				c2.02-0.73,3.74-1.78,5.14-3.16c1.4-1.38,2.48-3.05,3.24-5.02c0.75-1.97,1.13-4.19,1.13-6.68c0-2.59-0.38-4.87-1.13-6.84
				c-0.76-1.97-1.83-3.62-3.24-4.94c-1.4-1.32-3.12-2.32-5.14-3c-2.02-0.67-4.3-1.01-6.84-1.01h-9.71V28.48h9.07
				c5.34,0,10.02,0.76,14.04,2.27c4.02,1.51,7.38,3.6,10.08,6.27c2.7,2.67,4.72,5.76,6.07,9.27c1.35,3.51,2.02,7.23,2.02,11.17v1.78
				c0,3.62-0.68,7.16-2.02,10.64c-1.35,3.48-3.37,6.61-6.07,9.39c-2.7,2.78-6.06,4.99-10.08,6.64c-4.02,1.65-8.7,2.47-14.04,2.47
				H46.67z"/>
			<path class="st1" d="M116.53,89.67c-3.78,0-7.12-0.65-10.04-1.94c-2.91-1.29-5.37-3.05-7.37-5.26c-2-2.21-3.52-4.7-4.57-7.45
				c-1.05-2.75-1.58-5.58-1.58-8.5V64.9c0-3.02,0.53-5.92,1.58-8.7c1.05-2.78,2.56-5.25,4.53-7.41c1.97-2.16,4.38-3.87,7.24-5.14
				c2.86-1.27,6.1-1.9,9.71-1.9c4.8,0,8.88,1.08,12.22,3.24c3.35,2.16,5.91,5.01,7.69,8.54c1.78,3.54,2.67,7.38,2.67,11.54v4.69
				h-39.5v-7.93h31l-5.1,3.56c0-2.54-0.34-4.68-1.01-6.43c-0.68-1.75-1.67-3.09-2.99-4.01c-1.32-0.92-2.98-1.38-4.98-1.38
				c-1.94,0-3.63,0.45-5.06,1.34c-1.43,0.89-2.52,2.24-3.28,4.05c-0.76,1.81-1.13,4.09-1.13,6.84c0,2.48,0.35,4.63,1.05,6.43
				c0.7,1.81,1.78,3.2,3.24,4.17c1.46,0.97,3.34,1.46,5.67,1.46c2.05,0,3.74-0.35,5.06-1.05c1.32-0.7,2.25-1.65,2.79-2.83h13.44
				c-0.65,3.02-1.93,5.72-3.84,8.09c-1.92,2.38-4.34,4.24-7.28,5.59C123.74,88.99,120.36,89.67,116.53,89.67"/>
			<path class="st1" d="M142.02,28.96h19.75v10.68h-19.75V28.96z M147.04,28.96h14.73v59.09h-14.73V28.96z"/>
			<path class="st2" d="M201.19,89.59c-5.34,0-9.93-0.94-13.76-2.83c-3.83-1.89-6.95-4.34-9.35-7.37c-2.4-3.02-4.17-6.31-5.3-9.88
				c-1.13-3.56-1.7-6.99-1.7-10.28v-1.78c0-3.67,0.58-7.28,1.74-10.85c1.16-3.56,2.95-6.8,5.38-9.71c2.43-2.91,5.52-5.25,9.27-7
				c3.75-1.75,8.19-2.63,13.31-2.63c5.34,0,10,0.96,13.96,2.87c3.97,1.92,7.14,4.61,9.51,8.09c2.37,3.48,3.8,7.54,4.29,12.18h-11.57
				c-0.43-2.7-1.39-4.98-2.87-6.84c-1.49-1.86-3.36-3.26-5.63-4.21c-2.27-0.94-4.83-1.42-7.69-1.42c-2.91,0-5.5,0.5-7.77,1.5
				c-2.27,1-4.16,2.42-5.67,4.25c-1.51,1.83-2.66,3.99-3.44,6.48c-0.78,2.48-1.17,5.23-1.17,8.26c0,2.91,0.39,5.61,1.17,8.1
				c0.78,2.48,1.96,4.65,3.52,6.52c1.56,1.86,3.49,3.31,5.79,4.33c2.29,1.03,4.95,1.54,7.97,1.54c4.42,0,8.16-1.09,11.21-3.28
				c3.05-2.19,4.9-5.25,5.54-9.19h11.57c-0.54,4.21-1.97,8.07-4.29,11.58c-2.32,3.51-5.5,6.31-9.55,8.42
				C211.63,88.53,206.8,89.59,201.19,89.59"/>
			<path class="st2" d="M250.81,89.18c-3.19,0-5.98-0.57-8.38-1.7c-2.4-1.13-4.26-2.75-5.59-4.86c-1.32-2.1-1.98-4.64-1.98-7.61
				c0-3.24,0.79-5.88,2.39-7.93c1.59-2.05,3.83-3.59,6.72-4.61c2.89-1.03,6.27-1.54,10.16-1.54h10.2v6.72h-10.36
				c-2.59,0-4.57,0.64-5.95,1.9c-1.38,1.27-2.06,2.9-2.06,4.9c0,2,0.69,3.62,2.06,4.86c1.38,1.24,3.36,1.86,5.95,1.86
				c1.57,0,3.01-0.28,4.33-0.85c1.32-0.57,2.43-1.54,3.32-2.91c0.89-1.38,1.39-3.25,1.5-5.63c0,0,1.74,8.82,0.53,10.93
				c-1.21,2.11-2.89,3.71-5.02,4.82C256.49,88.63,253.88,89.18,250.81,89.18 M264.97,88.05V68l-1.86-1v-6.47
				c0-2.54-0.62-4.42-1.86-5.67c-1.24-1.24-3.16-1.86-5.75-1.86c-1.35,0-2.97,0.03-4.86,0.08c-1.89,0.06-3.79,0.12-5.71,0.2
				c-1.92,0.08-3.63,0.18-5.14,0.28v-9.55c1.24-0.11,2.64-0.22,4.21-0.32s3.17-0.18,4.82-0.2c1.65-0.03,3.2-0.04,4.65-0.04
				c4.53,0,8.3,0.59,11.29,1.78c2.99,1.19,5.26,3.05,6.8,5.58c1.54,2.54,2.31,5.86,2.31,9.96v27.28H264.97z"/>
			<path class="st2" d="M285.94,88.05V44.1h8.9v18.86h-0.81c0-4.42,0.57-8.14,1.7-11.13c1.13-3,2.82-5.26,5.06-6.8
				c2.24-1.54,5.03-2.31,8.38-2.31h0.49c3.4,0,6.22,0.77,8.46,2.31c2.24,1.54,3.91,3.8,5.02,6.8c1.11,2.99,1.66,6.7,1.66,11.13
				h-2.83c0-4.42,0.58-8.14,1.74-11.13c1.16-3,2.86-5.26,5.1-6.8c2.24-1.54,5.03-2.31,8.38-2.31h0.49c3.4,0,6.23,0.77,8.5,2.31
				c2.27,1.54,3.98,3.8,5.14,6.8c1.16,2.99,1.74,6.7,1.74,11.13v25.09h-11.25V61.9c0-2.75-0.7-4.95-2.11-6.6
				c-1.4-1.65-3.4-2.47-5.99-2.47s-4.67,0.85-6.23,2.55c-1.57,1.7-2.35,3.98-2.35,6.84v25.82h-11.25V61.9c0-2.75-0.7-4.95-2.11-6.6
				c-1.4-1.65-3.4-2.47-5.99-2.47c-2.59,0-4.67,0.85-6.23,2.55c-1.57,1.7-2.35,3.98-2.35,6.84v25.82H285.94z"/>
			<path class="st2" d="M365.1,104.24V44.1h8.9v18.94l-1.38-0.08c0.22-4.48,1.15-8.23,2.79-11.25c1.65-3.02,3.85-5.27,6.6-6.76
				c2.75-1.48,5.83-2.23,9.23-2.23c3.13,0,5.95,0.57,8.46,1.7c2.51,1.13,4.67,2.73,6.48,4.78c1.81,2.05,3.2,4.44,4.17,7.16
				c0.97,2.73,1.46,5.65,1.46,8.78v1.7c0,3.18-0.47,6.14-1.42,8.86c-0.95,2.73-2.32,5.13-4.13,7.2c-1.81,2.08-3.98,3.7-6.52,4.86
				c-2.54,1.16-5.37,1.74-8.5,1.74c-3.29,0-6.3-0.69-9.02-2.06c-2.73-1.38-4.92-3.51-6.6-6.39c-1.67-2.89-2.62-6.62-2.83-11.21
				l3.56,5.42v28.98H365.1z M388.41,80.04c2.43,0,4.55-0.59,6.35-1.78c1.81-1.19,3.22-2.85,4.25-4.98c1.02-2.13,1.54-4.54,1.54-7.24
				c0-2.8-0.51-5.23-1.54-7.28c-1.03-2.05-2.44-3.66-4.25-4.82c-1.81-1.16-3.92-1.74-6.35-1.74c-2.21,0-4.25,0.49-6.11,1.46
				c-1.86,0.97-3.37,2.4-4.53,4.29c-1.16,1.89-1.74,4.16-1.74,6.8v3.24c0,2.54,0.59,4.7,1.78,6.48c1.19,1.78,2.72,3.16,4.61,4.13
				C384.31,79.55,386.31,80.04,388.41,80.04"/>
			<path class="st2" d="M442.81,89.59c-3.89,0-7.31-0.62-10.28-1.86c-2.97-1.24-5.48-2.93-7.53-5.06c-2.05-2.13-3.6-4.55-4.65-7.24
				c-1.05-2.7-1.58-5.5-1.58-8.42v-1.7c0-3.02,0.55-5.9,1.66-8.62c1.11-2.72,2.7-5.15,4.78-7.28c2.08-2.13,4.6-3.81,7.57-5.02
				c2.97-1.21,6.31-1.82,10.04-1.82c3.72,0,7.07,0.61,10.04,1.82c2.97,1.21,5.49,2.89,7.57,5.02c2.08,2.13,3.66,4.56,4.74,7.28
				c1.08,2.73,1.62,5.6,1.62,8.62V67c0,2.91-0.53,5.72-1.58,8.42c-1.05,2.7-2.6,5.11-4.65,7.24c-2.05,2.13-4.56,3.82-7.53,5.06
				C450.04,88.97,446.64,89.59,442.81,89.59 M442.81,79.96c2.75,0,5.07-0.61,6.96-1.82c1.89-1.21,3.32-2.86,4.29-4.94
				c0.97-2.08,1.46-4.44,1.46-7.08c0-2.7-0.5-5.09-1.5-7.16c-1-2.08-2.46-3.72-4.37-4.94c-1.92-1.22-4.2-1.82-6.84-1.82
				c-2.65,0-4.93,0.61-6.84,1.82c-1.92,1.21-3.39,2.86-4.41,4.94c-1.02,2.08-1.54,4.47-1.54,7.16c0,2.64,0.5,5.01,1.5,7.08
				c1,2.08,2.44,3.72,4.33,4.94C437.73,79.35,440.05,79.96,442.81,79.96"/>
			<path class="st1" d="M147.04,41.75c0,0-13.97,1.86-23.38-7.45S99.25,32,99.25,32s26.73-15.05,49.87-3.52
				c0,0-8.31-8.87-7.09-19.17c0,0,0.53,6.36,9.88,7.53c9.35,1.17,9.88,12.13,9.88,12.13l-13.02,12.79"/>
		</g>
	</g>
</g>
</svg>
